<svg xmlns="http://www.w3.org/2000/svg" viewBox="0 0 17.28 17.17"><defs><style>.cls-1{fill:#fff;}</style></defs><title>Asset 5</title><g id="Layer_2" data-name="Layer 2"><g id="Layer_1-2" data-name="Layer 1"><path class="cls-1" d="M13.62,8a13.73,13.73,0,0,0-.52-3.35,7.94,7.94,0,0,0,1.29-1A7.36,7.36,0,0,1,16.16,8Zm-.89,5.5a7.14,7.14,0,0,1,.89.67,7.86,7.86,0,0,1-1.95,1.24,8.1,8.1,0,0,0,1.06-1.91m-8.18,0a8.51,8.51,0,0,0,1.07,1.91,7.68,7.68,0,0,1-1.95-1.24,7,7,0,0,1,.88-.67m0-9.91A7,7,0,0,1,3.67,3a7.41,7.41,0,0,1,2-1.24A8.51,8.51,0,0,0,4.55,3.63m7.12-1.91A7.58,7.58,0,0,1,13.62,3a7.14,7.14,0,0,1-.89.67,8.1,8.1,0,0,0-1.06-1.91M9.19,4.8V1.17c1.24.36,2.1,1.79,2.57,3a7.32,7.32,0,0,1-2.57.65M9.19,8V5.9a8.45,8.45,0,0,0,2.91-.7A12.79,12.79,0,0,1,12.52,8Zm0,3.23V9.13h3.33A12.79,12.79,0,0,1,12.1,12a8.45,8.45,0,0,0-2.91-.7m0,1.1a7.53,7.53,0,0,1,2.57.64c-.47,1.2-1.33,2.63-2.57,3Zm-1.1,0V16c-1.24-.35-2.1-1.78-2.56-3a7.42,7.42,0,0,1,2.56-.64m0-3.24v2.14a8.5,8.5,0,0,0-2.91.7,12.79,12.79,0,0,1-.41-2.84Zm0-3.23V8H4.77A12.79,12.79,0,0,1,5.18,5.2a8.5,8.5,0,0,0,2.91.7m0-1.1a7.21,7.21,0,0,1-2.56-.65C6,3,6.85,1.53,8.09,1.17ZM2.89,3.74a8.48,8.48,0,0,0,1.3,1A13.26,13.26,0,0,0,3.66,8H1.12a7.43,7.43,0,0,1,1.77-4.3M1.12,9.13H3.66a13.26,13.26,0,0,0,.53,3.35,8.48,8.48,0,0,0-1.3.95,7.43,7.43,0,0,1-1.77-4.3m13.27,4.3a7.94,7.94,0,0,0-1.29-.95,13.73,13.73,0,0,0,.52-3.35h2.54a7.36,7.36,0,0,1-1.77,4.3m.36-10.91a8.67,8.67,0,0,0-12.22,0,8.53,8.53,0,0,0,0,12.13,8.68,8.68,0,0,0,12.22,0,8.52,8.52,0,0,0,0-12.13"/></g></g></svg>