<svg xmlns="http://www.w3.org/2000/svg" viewBox="0 0 16.36 16.36"><defs><style>.cls-1{fill:#fff;}</style></defs><title>Asset 6</title><g id="Layer_2" data-name="Layer 2"><g id="Layer_1-2" data-name="Layer 1"><path class="cls-1" d="M14.91,11.85a3.07,3.07,0,0,1-3.06,3.06H4.52a3.07,3.07,0,0,1-3.07-3.06V4.52A3.08,3.08,0,0,1,4.52,1.45h7.33a3.07,3.07,0,0,1,3.06,3.07ZM11.85,0H4.52A4.52,4.52,0,0,0,0,4.52v7.33a4.51,4.51,0,0,0,4.52,4.51h7.33a4.51,4.51,0,0,0,4.51-4.51V4.52A4.51,4.51,0,0,0,11.85,0"/><path class="cls-1" d="M8.18,11a2.77,2.77,0,1,1,2.76-2.77A2.77,2.77,0,0,1,8.18,11m0-7A4.22,4.22,0,1,0,12.4,8.18,4.23,4.23,0,0,0,8.18,4"/><path class="cls-1" d="M12.57,2.73a1.07,1.07,0,0,0-.75.32,1,1,0,0,0-.31.75,1.06,1.06,0,0,0,1.06,1.06,1.08,1.08,0,0,0,.76-.31,1.06,1.06,0,0,0,.31-.75,1,1,0,0,0-.31-.75,1.09,1.09,0,0,0-.76-.32"/></g></g></svg>