<svg xmlns="http://www.w3.org/2000/svg" viewBox="0 0 20.77 19.28"><defs><style>.cls-1{fill:#fff;}</style></defs><title>Asset 4</title><g id="Layer_2" data-name="Layer 2"><g id="Layer_1-2" data-name="Layer 1"><path class="cls-1" d="M17.38,6.69a.58.58,0,0,0-.86-.09.71.71,0,0,0-.08.94,3.72,3.72,0,0,1,.08,4.23.71.71,0,0,0,.12.94.56.56,0,0,0,.36.14.61.61,0,0,0,.49-.27,5.16,5.16,0,0,0-.11-5.89"/><path class="cls-1" d="M19.13,4.86a.56.56,0,0,0-.85-.07.73.73,0,0,0-.07,1,6.43,6.43,0,0,1,1.34,4,6.53,6.53,0,0,1-1.23,3.84.71.71,0,0,0,.09.95.55.55,0,0,0,.38.15.6.6,0,0,0,.47-.25,8,8,0,0,0-.13-9.54"/><path class="cls-1" d="M4.25,6.6a.58.58,0,0,0-.86.09,5.16,5.16,0,0,0-.11,5.89.59.59,0,0,0,.49.26.55.55,0,0,0,.36-.13.71.71,0,0,0,.12-.94,3.72,3.72,0,0,1,.08-4.23.71.71,0,0,0-.08-.94"/><path class="cls-1" d="M1.22,9.71a6.43,6.43,0,0,1,1.34-4,.72.72,0,0,0-.07-1,.57.57,0,0,0-.86.07,8,8,0,0,0-.12,9.54.59.59,0,0,0,.47.25.55.55,0,0,0,.38-.15.72.72,0,0,0,.09-.95A6.53,6.53,0,0,1,1.22,9.71"/><path class="cls-1" d="M14.44,12.65a.78.78,0,0,1-.74.82H7.07a.78.78,0,0,1-.74-.8V4.38a.78.78,0,0,1,.74-.81H13.7a.78.78,0,0,1,.74.82Zm-.38,5.29H6.71a.4.4,0,0,1-.38-.42V14.65a1.7,1.7,0,0,0,.74.16H13.7a1.7,1.7,0,0,0,.74-.16v2.87a.4.4,0,0,1-.38.42M6.71,1.34h7.35a.4.4,0,0,1,.38.42v.63a1.86,1.86,0,0,0-.74-.16H7.07a1.86,1.86,0,0,0-.74.16V1.76a.4.4,0,0,1,.38-.42M14.06,0H6.71a1.69,1.69,0,0,0-1.6,1.76V17.52a1.69,1.69,0,0,0,1.6,1.76h7.35a1.69,1.69,0,0,0,1.6-1.76V1.76A1.69,1.69,0,0,0,14.06,0"/><path class="cls-1" d="M11.73,15.7H9A.67.67,0,0,0,9,17h2.7a.67.67,0,0,0,0-1.34"/></g></g></svg>