<svg xmlns="http://www.w3.org/2000/svg" xmlns:xlink="http://www.w3.org/1999/xlink" viewBox="0 0 939.18 852.36"><defs><style>.cls-1{fill:url(#linear-gradient);}.cls-2{fill:#fff;}.cls-3{fill:#526675;}</style><linearGradient id="linear-gradient" x1="426.18" y1="852.36" x2="426.18" gradientTransform="translate(426.18 1028.89) rotate(-135)" gradientUnits="userSpaceOnUse"><stop offset="0" stop-color="#aeb9cc"/><stop offset="0.16" stop-color="#aabbb6"/><stop offset="0.51" stop-color="#a0c27e"/><stop offset="0.93" stop-color="#92ca31"/></linearGradient></defs><g id="Layer_2" data-name="Layer 2"><g id="Layer_1-2" data-name="Layer 1"><rect class="cls-1" x="124.82" y="124.82" width="602.71" height="602.71" transform="translate(1028.89 426.18) rotate(135)"/><circle class="cls-2" cx="648.68" cy="349.5" r="290.5"/><polygon class="cls-3" points="679.84 510.56 687.34 453.34 677.57 452.06 667.2 474.73 662.32 486.89 667.06 450.68 659.14 449.65 651.65 506.86 660.77 508.06 671.65 482.8 677.12 469.21 671.84 509.51 679.84 510.56"/><path class="cls-3" d="M591,440.71l-7.5,41.5c-.6,3.33-1.36,5.39-3.15,7.16l-3.48-.46-2.06,15.69,8.65,1.14,1-7.69,19,2.49-1,7.68,8.81,1.16,2.06-15.69-3.88-.51L615.85,444ZM600.35,492l-11.63-1.52c1.63-1.2,2.69-3,3.5-7.28l6-33.22,7.51,1Z"/><path class="cls-3" d="M713.12,514.92l7.5-57.22-8.89-1.16-3,23.21c-.5,3.84-2.55,5.65-5.37,5.28s-4.94-2.47-4.44-6.31L702,455.26l-8.89-1.17-3.17,24.2c-1,7.84,2.07,13.65,9.34,14.61a11,11,0,0,0,8-2.2l-3,23.06Z"/><polygon class="cls-3" points="645.19 506.01 652.68 448.8 643.64 447.61 640.42 472.13 630.33 470.81 633.54 446.29 624.65 445.13 617.15 502.34 626.04 503.51 629.25 478.98 639.35 480.31 636.14 504.83 645.19 506.01"/><polygon class="cls-3" points="501.15 487.14 507.58 438.09 516.87 439.31 517.94 431.14 490.47 427.54 489.4 435.71 498.69 436.93 492.26 485.97 501.15 487.14"/><polygon class="cls-3" points="750.33 469.91 751.4 461.74 727.16 458.56 719.66 515.78 743.9 518.95 744.97 510.78 729.62 508.77 731.82 492.01 744.02 493.61 745.09 485.44 732.89 483.84 734.98 467.9 750.33 469.91"/><path class="cls-3" d="M417.14,506.07,416,514.69,837.83,570q4.35-3.74,8.54-7.64Z"/><path class="cls-3" d="M779.09,184.77l-10.22-1.34L765.26,211c-1.17,8.94,2.4,15.56,10.76,16.66a12.71,12.71,0,0,0,9.21-2.49l-3.44,26.26L792,252.77l8.55-65.18-10.22-1.34-3.47,26.44c-.57,4.38-2.92,6.44-6.17,6s-5.68-2.83-5.1-7.21Z"/><path class="cls-3" d="M433.75,379.83a16.4,16.4,0,0,1-.92,4.08,2.51,2.51,0,0,1-1.69,1.53,11.65,11.65,0,0,1-3.57.15l-.2,1.5q4.32.33,13.09,1.48,4.89.65,10,1.46c1,.18,2.21.37,3.67.56q10.8,1.41,17.13-1.42T478.52,379a10,10,0,0,0-1.37-6.4,16.2,16.2,0,0,0-6.31-5.76A37.86,37.86,0,0,0,459,362.91l0-.15a27,27,0,0,0,9.9-1.53,16.54,16.54,0,0,0,6.5-4.15,9.79,9.79,0,0,0,2.68-5.33q.72-5.42-4.09-9.28t-14.7-5.18c-1.31-.17-2.46-.29-3.47-.37l-8.64-1.06q-8.62-1.12-12.88-1.92l-.2,1.5a11.18,11.18,0,0,1,3.38,1.06,2.63,2.63,0,0,1,1.23,1.92,14.49,14.49,0,0,1-.12,4.18Zm20.11-35.23a20.43,20.43,0,0,1,.84-4,2.73,2.73,0,0,1,1.41-1.72,5,5,0,0,1,2.65-.19,4.2,4.2,0,0,1,3.66,3.27q.88,2.9.13,8.6a20.72,20.72,0,0,1-2.78,8.69,5.81,5.81,0,0,1-6.1,2.59l-2-.26ZM449,381.83l2.49-19,1,.13q6.17.81,8.61,4.26t1.67,9.38q-1.73,13.14-9.75,12.09a7.74,7.74,0,0,1-3.05-.9,2.66,2.66,0,0,1-1.16-1.95A15.55,15.55,0,0,1,449,381.83Z"/><polygon class="cls-3" points="808.08 188.57 799.53 253.76 809.75 255.1 813.41 227.16 825.02 228.68 821.36 256.62 831.76 257.98 840.31 192.8 829.9 191.43 826.24 219.37 814.63 217.85 818.29 189.91 808.08 188.57"/><path class="cls-3" d="M872.25,164q-4.18-5-8.59-9.89L491.27,105.31q-5.5,3.56-10.84,7.35Z"/><path class="cls-3" d="M526,468.53l4.2.55c8.89,1.17,13.9-3.25,15.1-12.4l1-7.44c1.2-9.15-2.51-14.71-11.4-15.88l-13.08-1.71-7.5,57.21L523.2,490ZM529.63,441l4.2.56c2.83.37,4.19,1.88,3.66,6l-1.13,8.58c-.53,4.09-2.24,5.2-5.07,4.83l-4.2-.55Z"/><path class="cls-3" d="M844.85,209.31l-4.44,33.89c-1.37,10.43,3.33,17.11,13.37,18.43s16.29-3.93,17.66-14.36l4.44-33.9c1.37-10.43-3.33-17.1-13.36-18.42S846.22,198.88,844.85,209.31Zm20.9,2.07-4.62,35.2c-.61,4.66-2.88,6.16-6.13,5.73s-5.07-2.46-4.46-7.11L855.16,210c.61-4.65,2.88-6.15,6.13-5.73S866.36,206.73,865.75,211.38Z"/><path class="cls-3" d="M771.73,484l8.4,1.11.73-5.56c1.2-9.16-2.64-15-11.36-16.12s-13.94,3.49-15.14,12.64l-3.9,29.76c-1.2,9.15,2.64,15,11.37,16.12s13.93-3.5,15.13-12.65l1-7.6-8.4-1.1-1.07,8.17c-.54,4.09-2.51,5.33-5.34,5s-4.41-2.08-3.87-6.17l4.05-30.89c.53-4.09,2.51-5.41,5.34-5s4.4,2.16,3.86,6.24Z"/><polygon class="cls-3" points="796.16 525.8 802.59 476.76 811.88 477.98 812.95 469.81 785.49 466.2 784.41 474.38 793.71 475.6 787.28 524.64 796.16 525.8"/><path class="cls-3" d="M841.42,489l.26-2c1.16-8.83-2.23-13.68-11.44-14.89l-13.41-1.76-7.5,57.22,14,1.83c8.88,1.17,14.11-3,15.27-11.8l.61-4.66c.79-6-.5-10.62-5-13.13C838.37,498.41,840.64,494.89,841.42,489Zm-11,22.17-.66,5c-.55,4.25-2.35,5.43-5.34,5l-5.09-.67,2.3-17.57,4,.52C829.59,504,831.07,505.85,830.38,511.17Zm2.3-24.48-.42,3.19c-.6,4.58-2.81,5.78-6.12,5.35l-3.48-.46,2-15.12,4.28.56C832.08,480.63,833.22,482.6,832.68,486.69Z"/><path class="cls-3" d="M864.64,393.74a2,2,0,0,1,1.45-1.11,9.56,9.56,0,0,1,3,.05l1,.13a11.91,11.91,0,0,1,8.29,4.94q3.18,4.28,3.39,13.16l1.73.22a50.49,50.49,0,0,1,.48-5.43q.72-5.55,2.18-12.54c-3.13-.26-8.36-.87-15.72-1.83q-17.56-2.31-26.24-3.67l-.2,1.5a11.44,11.44,0,0,1,3.37,1,2.65,2.65,0,0,1,1.24,1.92,15,15,0,0,1-.13,4.19l-4.88,37.23a16.5,16.5,0,0,1-.91,4.08,2.58,2.58,0,0,1-1.69,1.53,12.11,12.11,0,0,1-3.57.14l-.2,1.5q8.74.92,26.3,3.22,12.09,1.59,17.16,2.48a123.63,123.63,0,0,1,1.13-12.68c.37-2.8.74-5.09,1.13-6.88l-1.73-.22q-2.87,9.09-7.33,12.82t-8.81,3.16l-2.48-.33a9.62,9.62,0,0,1-2.92-.72,2.08,2.08,0,0,1-1.11-1.45,10.1,10.1,0,0,1,.08-3.16l2.55-19.51.75.1a9.53,9.53,0,0,1,6.58,3.72,12.62,12.62,0,0,1,2.56,7.55l1.72.23c.3-4.59.62-8.17,1-10.72l.47-3.6c.34-2.6.73-4.95,1.15-7l-1.72-.23a14.4,14.4,0,0,1-4.43,6.37,8.72,8.72,0,0,1-7.08,2.2l-.75-.09,2.52-19.22A10.53,10.53,0,0,1,864.64,393.74Z"/><path class="cls-3" d="M847.1,488.25,843.2,518c-1.2,9.16,2.88,15,11.61,16.15s14.17-3.46,15.37-12.61l3.9-29.75c1.2-9.16-2.88-15-11.6-16.16S848.3,479.09,847.1,488.25Zm18.17,1.8-4,30.89c-.53,4.09-2.52,5.41-5.34,5s-4.4-2.15-3.87-6.24l4-30.9c.54-4.08,2.52-5.41,5.34-5S865.81,486,865.27,490.05Z"/><path class="cls-3" d="M487.18,340.87l-.19,1.5a11.54,11.54,0,0,1,3.37,1.05,2.69,2.69,0,0,1,1.24,1.92,15,15,0,0,1-.13,4.18l-4.88,37.24a15.09,15.09,0,0,1-.95,4.07,2.67,2.67,0,0,1-1.69,1.53,11.4,11.4,0,0,1-3.54.15l-.19,1.5q4.3.35,12.49,1.41l9.07,1.27c.94.17,2.12.35,3.52.53q11,1.45,17.36-2.23a14.39,14.39,0,0,0,7.3-11.18,13.37,13.37,0,0,0-4-11.75q-4.93-4.92-18.22-6.66l-2.77-.37,1.77-13.51a16.5,16.5,0,0,1,.91-4.08,2.53,2.53,0,0,1,1.69-1.53,11.7,11.7,0,0,1,3.57-.15l.2-1.5q-4.46-.35-12.57-1.42Q491.43,341.66,487.18,340.87Zm14.65,47.88,2.91-22.22,2,.27c3.55.46,5.8,2.1,6.76,4.89s1.13,6.55.51,11.26-1.63,8.09-3,10.17a6,6,0,0,1-6.18,2.59c-1.55-.2-2.52-.78-2.91-1.72S501.49,391.3,501.83,388.75Z"/><path class="cls-3" d="M527.35,151c-10-1.31-16.3,3.93-17.66,14.36l-4.45,33.89c-1.36,10.43,3.34,17.11,13.37,18.43s16.29-3.93,17.66-14.36l4.44-33.9C542.08,159,537.38,152.34,527.35,151Zm3.23,16.43L526,202.65c-.61,4.66-2.89,6.16-6.14,5.73s-5.06-2.46-4.45-7.11L520,166.06c.61-4.65,2.89-6.15,6.14-5.73S531.19,162.8,530.58,167.45Z"/><path class="cls-3" d="M712.76,176.08l-15-2-8.54,65.18,10.22,1.34,3.21-24.49,4.83.64c10.22,1.33,16-3.69,17.35-14.12l1.11-8.47C727.25,183.76,723,177.42,712.76,176.08Zm3,16.12L714.47,202c-.61,4.66-2.57,5.92-5.82,5.49l-4.83-.63,2.89-22.07,4.83.63C714.79,185.82,716.36,187.54,715.75,192.2Z"/><path class="cls-3" d="M639.85,165.76c-10-1.31-16.3,3.93-17.67,14.36L617.74,214c-1.37,10.43,3.33,17.11,13.37,18.42s16.29-3.92,17.66-14.35l4.44-33.9C654.58,173.76,649.88,167.08,639.85,165.76Zm3.23,16.44-4.62,35.2c-.61,4.65-2.88,6.16-6.13,5.73s-5.07-2.46-4.46-7.12l4.62-35.2c.61-4.66,2.88-6.16,6.13-5.73S643.69,177.54,643.08,182.2Z"/><polygon class="cls-3" points="582.71 225.34 592.93 226.68 600.25 170.81 616.98 173 618.2 163.69 591.26 160.15 582.71 225.34"/><path class="cls-3" d="M647.94,266.47l-25.08,46.69a29.16,29.16,0,0,1-4.75,6.9,6.64,6.64,0,0,1-4.3,2.16l-.22,1.72a62.72,62.72,0,0,1,6.5.59q4.7.62,11,1.7l.23-1.73a11.28,11.28,0,0,1-5.52-2.21q-1.77-1.55-1.3-5.07.51-3.87,4.24-10.82l1.93-3.69,17,2.23,3.11,14.76a12,12,0,0,1,.46,4.26,2.32,2.32,0,0,1-1.64,2.1,13,13,0,0,1-4.64.23l-.22,1.72q4.56.33,14.14,1.59,9.23,1.22,15.25,2.26l.22-1.72a4.11,4.11,0,0,1-2.37-1.76A12.22,12.22,0,0,1,670,324l-13.28-56.36c-1.81-.12-3.27-.25-4.39-.4S649.71,266.82,647.94,266.47Zm-16.41,34.61,10.88-20.46,4.82,22.52Z"/><path class="cls-3" d="M676.35,170.55c-10-1.31-16,4-17.38,14.39l-4.44,33.9c-1.37,10.43,3.05,17.07,13.08,18.39s16-4,17.39-14.4l1.13-8.66-9.66-1.26-1.22,9.31c-.61,4.66-2.87,6.06-6.12,5.64s-5.08-2.37-4.47-7l4.62-35.2c.61-4.66,2.88-6.16,6.13-5.73s5.06,2.46,4.45,7.12l-.91,7,9.66,1.27.83-6.33C690.81,178.51,686.39,171.86,676.35,170.55Z"/><path class="cls-3" d="M546.34,204.38c-1,6-2.55,6.48-7.19,5.87l-1.22,9.32,1.57.2c10.22,1.34,15.11-2.75,17-14.63l6.28-39.24,8.91,1.17-7.32,55.87,10.41,1.37,8.54-65.19-28.89-3.79Z"/><path class="cls-3" d="M557.35,402.6a11.39,11.39,0,0,1-3.37-1.06,2.64,2.64,0,0,1-1.24-1.92,15,15,0,0,1,.13-4.18l4.88-37.23a16,16,0,0,1,.92-4.08,2.49,2.49,0,0,1,1.69-1.53,11.65,11.65,0,0,1,3.57-.15l.19-1.5q-4.38-.34-12.56-1.42-9.09-1.18-13.33-2l-.2,1.5a11.44,11.44,0,0,1,3.37,1.05,2.68,2.68,0,0,1,1.24,1.92,15,15,0,0,1-.13,4.18l-4.88,37.24a16.28,16.28,0,0,1-.91,4.07,2.57,2.57,0,0,1-1.69,1.54,12.11,12.11,0,0,1-3.57.14l-.2,1.5c2.87.23,7.34.73,13.39,1.53q8.18,1.06,12.51,1.87Z"/><path class="cls-3" d="M458.54,437.32l-3.9,29.75c-1.2,9.16,2.88,15,11.61,16.16s14.18-3.47,15.38-12.62l3.89-29.75c1.2-9.16-2.88-15-11.6-16.16S459.74,428.17,458.54,437.32Zm18.17,1.8-4,30.9c-.53,4.08-2.51,5.4-5.34,5s-4.4-2.15-3.87-6.24l4.05-30.9c.54-4.08,2.52-5.4,5.35-5S477.25,435,476.71,439.12Z"/><path class="cls-3" d="M423.46,463c-1.2,9.15,2.64,15,11.36,16.12s13.94-3.5,15.14-12.65l1-7.6-8.41-1.1-1.07,8.17c-.53,4.09-2.5,5.33-5.33,5s-4.41-2.08-3.88-6.17l4.05-30.89c.54-4.09,2.52-5.41,5.35-5s4.4,2.16,3.86,6.24l-.8,6.13,8.4,1.11.73-5.56c1.2-9.16-2.64-15-11.36-16.12s-13.94,3.49-15.14,12.64Z"/><path class="cls-3" d="M903.88,210.6Q901,205.41,898,200.36l-13.48-1.77L876,263.78l27.87,3.65,1.22-9.31-17.65-2.31,2.5-19.09,14,1.83,1.22-9.31-14-1.84,2.38-18.16Z"/><path class="cls-3" d="M465.27,275.61l.12-.91a14.25,14.25,0,0,1-2.65-.68,1.91,1.91,0,0,1-1.15-1,4.75,4.75,0,0,1-.18-2.05l18-19.76-2.75,21a6.87,6.87,0,0,1-.67,2.47,1.9,1.9,0,0,1-1.35.89,12.39,12.39,0,0,1-2.89,0l-.12.92c2.45.22,5.9.63,10.35,1.21q7.49,1,11,1.58l.12-.91a12,12,0,0,1-2.79-.74,1.86,1.86,0,0,1-1.07-1.21,6.63,6.63,0,0,1,0-2.56l3-22.66a6.67,6.67,0,0,1,.67-2.47,1.86,1.86,0,0,1,1.34-.89,12.4,12.4,0,0,1,2.89,0l.12-.92q-3.54-.31-11-1.3-6.74-.89-10.31-1.49l-.12.91a13.18,13.18,0,0,1,2.68.7,2,2,0,0,1,1.12,1.07,5,5,0,0,1,.16,2.14l-18,19.72,2.77-21.11a6.87,6.87,0,0,1,.67-2.47,1.83,1.83,0,0,1,1.34-.89,12.34,12.34,0,0,1,2.9,0l.12-.91c-2.45-.23-5.9-.63-10.35-1.22q-7.49-1-11-1.58l-.12.92a12,12,0,0,1,2.8.74,1.84,1.84,0,0,1,1.07,1.2,6.83,6.83,0,0,1,0,2.56l-3,22.67a6.6,6.6,0,0,1-.67,2.46,1.87,1.87,0,0,1-1.34.9,13.07,13.07,0,0,1-2.9,0l-.12.91q3.56.33,11,1.31Q461.7,275,465.27,275.61Z"/><path class="cls-3" d="M465.28,192.05c-.69,3.79-1.56,6.14-3.62,8.14l-4-.52-2.34,17.88,9.94,1.3,1.15-8.75L488.24,213l-1.15,8.75L497.21,223l2.35-17.88-4.46-.59,7.35-56.06-28.61-3.75Zm16.9-36.72,8.64,1.13-6.12,46.75-13.38-1.75c1.88-1.37,3.09-3.39,4-8.29Z"/><rect class="cls-3" x="915.07" y="315.51" width="8.59" height="30.57" transform="translate(471.89 1199.37) rotate(-82.53)"/><path class="cls-3" d="M565.09,403a11.35,11.35,0,0,1-3.53.15l-.2,1.5q4.3.33,13.39,1.52,8.7,1.14,13.26,2l.19-1.5a15.29,15.29,0,0,1-3.86-1.12,2.75,2.75,0,0,1-1.46-1.95,13.55,13.55,0,0,1,.09-4.18l5.08-38.74a10.21,10.21,0,0,1,.74-3.07,2,2,0,0,1,1.45-1.1,9.2,9.2,0,0,1,3,0l1,.12a11.51,11.51,0,0,1,7.8,4.88q3.21,4.28,3.88,13.22l1.72.23a48.46,48.46,0,0,1,.49-5.43q.72-5.57,2.17-12.55-4.68-.37-15.71-1.83-17.57-2.3-26.24-3.67l-.2,1.51a12.12,12.12,0,0,1,3.41,1.05,2.54,2.54,0,0,1,1.24,1.92,16.24,16.24,0,0,1-.17,4.18l-4.88,37.23a15.09,15.09,0,0,1-1,4.07A2.66,2.66,0,0,1,565.09,403Z"/><path class="cls-3" d="M747.51,179.88c-10-1.32-16.29,3.92-17.66,14.35l-4.44,33.9c-1.37,10.43,3.33,17.11,13.36,18.42s16.3-3.92,17.66-14.35l4.45-33.9C762.24,187.87,757.54,181.19,747.51,179.88Zm3.23,16.43-4.61,35.2c-.61,4.66-2.89,6.16-6.14,5.73s-5.06-2.46-4.45-7.12l4.61-35.2c.61-4.66,2.89-6.16,6.14-5.73S751.35,191.65,750.74,196.31Z"/><path class="cls-3" d="M620.87,410.23a32.74,32.74,0,0,0,14.44,5.18,30.41,30.41,0,0,0,15.17-1.6,25.46,25.46,0,0,0,11.36-8.59,29.48,29.48,0,0,0,5.52-14.17A29.08,29.08,0,0,0,665.75,376a23.62,23.62,0,0,0-8.69-10.64,32.74,32.74,0,0,0-14.44-5.18,30.41,30.41,0,0,0-15.17,1.6,25.46,25.46,0,0,0-11.36,8.59,29.48,29.48,0,0,0-5.52,14.17,29.08,29.08,0,0,0,1.61,15.06A23.57,23.57,0,0,0,620.87,410.23Zm5.5-23.94a58,58,0,0,1,3.3-13.54,23.49,23.49,0,0,1,5.54-8.78,8.37,8.37,0,0,1,6.94-2.48,8.65,8.65,0,0,1,6,4.07,23.24,23.24,0,0,1,3.45,9.77,49.87,49.87,0,0,1-.07,14,57.87,57.87,0,0,1-3.3,13.54,23.29,23.29,0,0,1-5.55,8.78,8.38,8.38,0,0,1-6.93,2.49,8.7,8.7,0,0,1-6-4.08,23.19,23.19,0,0,1-3.45-9.76A49.57,49.57,0,0,1,626.37,386.29Z"/><path class="cls-3" d="M703.48,426.56q3.48,3.74,3.86,11.35l1.72.22a45.46,45.46,0,0,1,.44-5.06q.6-4.57,1.88-10.29l-2.25-.29a8.86,8.86,0,0,1-3.35-.94,2.74,2.74,0,0,1-1.27-2,15.17,15.17,0,0,1,.13-4.21l4.88-37.24a13.48,13.48,0,0,1,1-4.07,2.71,2.71,0,0,1,1.91-1.5,15.06,15.06,0,0,1,4-.08l.2-1.51c-3-.24-7.51-.75-13.47-1.53-1.5-.2-3.4-.5-5.68-.9l-5-.73-3.24-.35c-1.52-.1-2.65-.2-3.4-.29-3.05-.4-5.62-.82-7.7-1.24l-.2,1.5a17.81,17.81,0,0,1,3.76,1,2.88,2.88,0,0,1,1.63,1.58,6.52,6.52,0,0,1,.14,3,14.23,14.23,0,0,1-.29,1.64l-.4,1.86q-2.56,13.17-4.75,21.36a47.71,47.71,0,0,1-5.77,13.75q-3.59,5.56-8.77,4.89l-1.35-.18c-.16,3.9-.43,7.37-.83,10.43a44.15,44.15,0,0,1-.89,5l1.73.22q2.33-7.25,6.65-10a14.22,14.22,0,0,1,9.73-2l16.06,2.1A14.26,14.26,0,0,1,703.48,426.56Zm-9.19-50.45-4.88,37.23a13.82,13.82,0,0,1-1,4.1,2.84,2.84,0,0,1-2,1.58,11.83,11.83,0,0,1-4,0l-14-1.83q4-1.85,6.75-7.21a57.69,57.69,0,0,0,4.44-11.75q1.68-6.39,3.63-16.06l1.56-7.27c.48-2.44,1.11-4.07,1.91-4.91a3.14,3.14,0,0,1,2.77-1.05l1,.13a4.39,4.39,0,0,1,3.36,1.74C694.5,371.73,694.63,373.51,694.29,376.11Z"/><path class="cls-3" d="M513.68,301.56a18.77,18.77,0,0,1-1,4.68,2.89,2.89,0,0,1-1.9,1.77,13.26,13.26,0,0,1-4,.17l-.23,1.72q4.83.38,14.65,1.66,5.46.72,11.14,1.64c1.12.2,2.48.41,4.11.62q12.09,1.59,19.18-1.68t8.2-11.71a11.79,11.79,0,0,0-1.52-7.33,18.14,18.14,0,0,0-7-6.57A41.28,41.28,0,0,0,542,282.08l0-.17a29.38,29.38,0,0,0,11.08-1.79,18.59,18.59,0,0,0,7.29-4.77,11.49,11.49,0,0,0,3-6.13q.81-6.2-4.55-10.62t-16.44-5.87q-2.19-.28-3.87-.42l-9.67-1.18q-9.66-1.26-14.41-2.15l-.23,1.72a12.79,12.79,0,0,1,3.78,1.19,3.05,3.05,0,0,1,1.37,2.2,17.56,17.56,0,0,1-.15,4.79Zm22.64-40.44a23.86,23.86,0,0,1,.95-4.61,3.2,3.2,0,0,1,1.58-2,5.69,5.69,0,0,1,3-.22,4.69,4.69,0,0,1,4.08,3.73c.65,2.21.68,5.5.11,9.86a24.2,24.2,0,0,1-3.14,10,6.48,6.48,0,0,1-6.84,3l-2.27-.3Zm-5.59,42.68L533.58,282l1.18.15q6.88.9,9.61,4.85t1.84,10.74q-2,15.06-11,13.89a8.41,8.41,0,0,1-3.41-1,3,3,0,0,1-1.29-2.23A18.25,18.25,0,0,1,530.73,303.8Z"/><path class="cls-3" d="M583.37,306.85q.54-4.14-1.28-6.52a8,8,0,0,0-5.6-2.88,9.24,9.24,0,0,0-6.61,1.5,8.17,8.17,0,0,0-3.43,6,9.37,9.37,0,0,0,.8,5.27,15.43,15.43,0,0,0,3,4.42q5.51,5.55,16.34,7a45.48,45.48,0,0,0,14-.27A26.1,26.1,0,0,0,612,316.68a12.92,12.92,0,0,0,5.31-8.88,11.84,11.84,0,0,0-2.43-9.16,22.87,22.87,0,0,0-8.5-6.54A40.16,40.16,0,0,0,595,288.67a41.33,41.33,0,0,0,15.57-4.13q7-3.5,7.88-10c.53-4-1-7.44-4.5-10.26s-8.38-4.64-14.54-5.45A25.67,25.67,0,0,0,590,259a33.86,33.86,0,0,0-7.82,3.31,3.08,3.08,0,0,1-1.69.56c-.62-.08-1-.54-1.27-1.39a14.52,14.52,0,0,1-.24-4.06l-1.93-.25q-.47,6.15-2.49,21.56l1.94.25q1.66-8.81,6.19-13.72t11.75-4A8.71,8.71,0,0,1,601,265q2.07,3.11,1.23,9.57A25.22,25.22,0,0,1,599.6,283a9.86,9.86,0,0,1-5.83,5.06,18.75,18.75,0,0,0-3.37-1c-1.35-.18-2.08.2-2.2,1.11a1.27,1.27,0,0,0,.36,1.19,2.46,2.46,0,0,0,1.3.52,7.59,7.59,0,0,0,3.67-.66,8.65,8.65,0,0,1,6.88,5.54,20.87,20.87,0,0,1,1.08,10.65q-1,7.92-5.58,11.26t-11.42,2.44a20,20,0,0,1-10.63-4.28,12.37,12.37,0,0,0,6.55-2.69A8.24,8.24,0,0,0,583.37,306.85Z"/><path class="cls-3" d="M566.39,480.89l15.13-41.42-9.29-1.22-6.61,19.09-3.85,13.05-1-13.77-2.29-20.17-8.8-1.15,6.49,45.75-.14.48c-1.28,4.07-4,4.55-8.45,3.63l-1.05,8C558.79,495.61,562.94,490.91,566.39,480.89Z"/><path class="cls-3" d="M755.25,280.53l-.22,1.72a12.46,12.46,0,0,1,3.77,1.2,3,3,0,0,1,1.38,2.19,17.73,17.73,0,0,1-.16,4.8l-4.81,36.65a53.28,53.28,0,0,1-1.43,7.69,6.84,6.84,0,0,1-2.18,3.61,8,8,0,0,1-4.11,1.35l-.22,1.72c1.7.05,4,.26,7,.65,4,.52,7.1,1,9.37,1.49l.23-1.72a13.26,13.26,0,0,1-5.51-2.64,6.33,6.33,0,0,1-1.69-4.38,58.38,58.38,0,0,1,.7-9.23l5-38.47,16.44,58.35,1.35.18,27.18-50.36-5.76,44a16,16,0,0,1-1.13,4.67,3.07,3.07,0,0,1-2.15,1.73,16.6,16.6,0,0,1-4.5.11l-.22,1.72q4.82.38,15,1.7,9.74,1.29,14.83,2.21l.22-1.72a12.46,12.46,0,0,1-3.77-1.2,3,3,0,0,1-1.38-2.19,17.66,17.66,0,0,1,.16-4.79l5.6-42.69a18.78,18.78,0,0,1,1-4.67,2.88,2.88,0,0,1,1.89-1.77,13,13,0,0,1,4-.17l.22-1.72q-5.14-.42-14.89-1.69l-7.31-1-18.53,34.51L779.6,283.72q-7.33-.69-17.41-2C759.22,281.32,756.91,280.92,755.25,280.53Z"/><path class="cls-3" d="M683,323.75a17.3,17.3,0,0,1-1.09,4.67,3,3,0,0,1-1.89,1.77,12.61,12.61,0,0,1-4,.18l-.22,1.72q4.82.38,15,1.7,9.15,1.2,14,2.1l.22-1.72a15.1,15.1,0,0,1-3.57-1.08,2.83,2.83,0,0,1-1.5-1.91,11.64,11.64,0,0,1-.1-3.82l25.94-38.26-5.19,39.58a17,17,0,0,1-1.08,4.67,3,3,0,0,1-1.89,1.77,12.61,12.61,0,0,1-4,.18l-.22,1.72q5,.39,14.05,1.58,10.17,1.33,14.92,2.22l.22-1.72a12.46,12.46,0,0,1-3.77-1.2,3,3,0,0,1-1.38-2.19,17.66,17.66,0,0,1,.16-4.79l5.6-42.69a17.09,17.09,0,0,1,1.08-4.67,3,3,0,0,1,1.89-1.76,12.61,12.61,0,0,1,4-.18l.22-1.73q-4.82-.36-15-1.7-9.15-1.2-14-2.09l-.22,1.72A13,13,0,0,1,724.8,279a3,3,0,0,1,1.45,1.94,12.43,12.43,0,0,1,.08,4l-25.94,38.18,5.22-39.76a17.09,17.09,0,0,1,1.08-4.67,3,3,0,0,1,1.89-1.76,12.85,12.85,0,0,1,4-.19l.22-1.72q-5-.39-14-1.58-10.17-1.32-14.92-2.21l-.22,1.72a12.81,12.81,0,0,1,3.77,1.19,3,3,0,0,1,1.38,2.2,17.25,17.25,0,0,1-.16,4.79Z"/><path class="cls-3" d="M889.36,345.64a34.46,34.46,0,0,0,6.23-16.25,33.88,33.88,0,0,0-1.75-17.26A26.66,26.66,0,0,0,884.16,300,36,36,0,0,0,868,294.09,33.4,33.4,0,0,0,851,296a28.82,28.82,0,0,0-12.74,9.89,34.35,34.35,0,0,0-6.23,16.25,33.89,33.89,0,0,0,1.75,17.26,26.59,26.59,0,0,0,9.68,12.16,35.91,35.91,0,0,0,16.14,5.88,33.31,33.31,0,0,0,17-1.89A28.78,28.78,0,0,0,889.36,345.64Zm-11.45-18.22A67.24,67.24,0,0,1,874.17,343,26.89,26.89,0,0,1,867.93,353q-3.64,3.42-7.76,2.88-3.95-.53-6.74-4.65t-3.83-11.18a58.17,58.17,0,0,1,.14-16,67.12,67.12,0,0,1,3.74-15.53,27,27,0,0,1,6.23-10.08c2.44-2.28,5-3.24,7.77-2.88s4.87,1.9,6.73,4.65A26.87,26.87,0,0,1,878,311.42,58.14,58.14,0,0,1,877.91,327.42Z"/><path class="cls-3" d="M741.52,378.1a2.53,2.53,0,0,1,1.69-1.54,12,12,0,0,1,3.56-.14l.2-1.5q-4.46-.36-12.56-1.42-9.09-1.19-13.33-2l-.2,1.51a11.44,11.44,0,0,1,3.37,1.05,2.64,2.64,0,0,1,1.24,1.92,15,15,0,0,1-.13,4.18l-4.88,37.23a16.5,16.5,0,0,1-.91,4.08,2.53,2.53,0,0,1-1.69,1.53,11.7,11.7,0,0,1-3.57.15l-.2,1.5q4.3.33,13.39,1.52,8.18,1.08,12.51,1.87l.19-1.5a11.44,11.44,0,0,1-3.37-1.05,2.64,2.64,0,0,1-1.24-1.92,15,15,0,0,1,.13-4.18l2.36-18L755,403.61l-2.36,18a16.4,16.4,0,0,1-.92,4.08,2.53,2.53,0,0,1-1.69,1.54,12.06,12.06,0,0,1-3.57.14l-.19,1.5q4.68.39,13.31,1.52t12.58,1.87l.2-1.5a11.44,11.44,0,0,1-3.37-1,2.61,2.61,0,0,1-1.24-1.92,14.58,14.58,0,0,1,.13-4.18l4.88-37.23a16.5,16.5,0,0,1,.91-4.08,2.55,2.55,0,0,1,1.69-1.54,12.11,12.11,0,0,1,3.57-.14l.2-1.5q-4.08-.3-12.64-1.43t-13.26-2l-.19,1.5a11.54,11.54,0,0,1,3.37,1.05,2.67,2.67,0,0,1,1.24,1.92,15,15,0,0,1-.13,4.18l-2.32,17.71-16.89-2.21,2.32-17.71A16,16,0,0,1,741.52,378.1Z"/><path class="cls-3" d="M790.06,432.41a32.73,32.73,0,0,0,14.44,5.17A30.41,30.41,0,0,0,819.67,436a25.48,25.48,0,0,0,11.36-8.6,29.4,29.4,0,0,0,5.52-14.16,29.08,29.08,0,0,0-1.61-15.06,23.6,23.6,0,0,0-8.69-10.65,32.86,32.86,0,0,0-14.44-5.17,30.41,30.41,0,0,0-15.17,1.6,25.46,25.46,0,0,0-11.36,8.59,29.48,29.48,0,0,0-5.52,14.16,29.11,29.11,0,0,0,1.61,15.07A23.62,23.62,0,0,0,790.06,432.41Zm5.5-23.94a57.75,57.75,0,0,1,3.3-13.54,23.41,23.41,0,0,1,5.54-8.78,8.41,8.41,0,0,1,6.94-2.49,8.72,8.72,0,0,1,6,4.07,23.29,23.29,0,0,1,3.45,9.77,49.87,49.87,0,0,1-.07,14,57.75,57.75,0,0,1-3.3,13.54,23.21,23.21,0,0,1-5.55,8.78,8.38,8.38,0,0,1-6.93,2.49,8.69,8.69,0,0,1-6-4.07,23.24,23.24,0,0,1-3.45-9.77A49.49,49.49,0,0,1,795.56,408.47Z"/><path class="cls-2" d="M278.84,463.19,275,450.06l72.88-21.25,3.83,13.13Zm8.53,29.24-3.84-13.14L356.41,458l3.84,13.14Z"/><circle class="cls-2" cx="153.18" cy="513" r="119"/><path class="cls-3" d="M120.61,455.48l22,58.39H98ZM172,591.11H119.26l26.63-68.59Zm-.25-135.63,22,58.39H161.7l-6.28-16.11ZM101.67,566.34q-8.76-.2-12.94-2.87c-2.79-1.79-4.18-4.74-4.18-8.89s1.31-9.43,3.93-16.05l8.09-20.75h46.56l-28.85,74.66,1.94,2.82h74.37l1.92-2.88-3.28-7.66-26-66.94h32l12.11,32.12c1.54,3.89,2.31,6.93,2.31,9.16a5.52,5.52,0,0,1-3.24,5.46c-2.13,1-5.71,1.62-10.71,1.82v3.91h46.37v-3.91c-5.9-.27-10.46-4.43-13.67-12.53l-48-123.07h-3.18l-24,61.44-24-61.44H126.1L79.74,549.33c-3.8,9.87-8.94,15.53-15.5,17v3.91h37.43Z"/></g></g></svg>