<?xml version="1.0" encoding="utf-8"?>
<!-- Generator: Adobe Illustrator 24.0.3, SVG Export Plug-In . SVG Version: 6.00 Build 0)  -->
<svg version="1.1" id="Layer_1" xmlns="http://www.w3.org/2000/svg" xmlns:xlink="http://www.w3.org/1999/xlink" x="0px" y="0px"
	 viewBox="0 0 83.6 83.6" style="enable-background:new 0 0 83.6 83.6;" xml:space="preserve">
<style type="text/css">
	.st0{fill:#DBDCDD;}
</style>
<title>Asset 3</title>
<g id="Layer_2_1_">
	<g id="Layer_1-2">
		<path class="st0" d="M83.4,19.8c-0.6-2.2-2.9-3.6-5.1-3c-1.1,0.3-2,1-2.5,2L75.1,20c-0.7-0.4-1.5-0.2-1.9,0.5l-3.5,6l-1.2-0.7
			c-0.7-0.4-1.5-0.2-1.9,0.5c0,0,0,0,0,0c-0.4,0.7-0.2,1.5,0.5,1.9c0,0,0,0,0,0l1.2,0.7L56.4,49.5l-2.9,7.8l-1.4,2.6
			c-0.8,1.4-0.7,3.2,0.2,4.5l-3.1,3.8L48.3,66c-0.6-1.4-2.2-2.1-3.6-1.6c-0.6,0.2-1.1,0.6-1.4,1.2l-0.5,0.8l-0.5-5.6
			c-0.1-1.5-1.5-2.7-3-2.5c-1.1,0.1-2.1,0.8-2.4,1.9l-3.4,10.3c-0.2,0.7,0.2,1.5,0.9,1.8c0.1,0.1,0.3,0.1,0.4,0.1
			c0.6,0,1.1-0.4,1.3-1l3.4-10.3l0.4,5.7c0.1,1.5,1.5,2.7,3,2.6c0.9-0.1,1.7-0.6,2.2-1.4l0.5-0.8l0.9,2.2c0.6,1.4,2.2,2.1,3.6,1.6
			c0.5-0.2,0.8-0.5,1.2-0.9l3.2-4c0.4,0.1,0.7,0.1,1.1,0.1c1.5,0,2.9-0.8,3.6-2.1l1.4-2.3l5.3-6.5l12-20.8l1.2,0.7
			c0.3,0.2,0.6,0.5,0.7,0.8c0.1,0.3,0,0.7-0.1,1l-5.6,9.7c-0.4,0.6-0.3,1.5,0.4,2c0,0,0,0,0.1,0c0.7,0.4,1.5,0.2,1.9-0.5
			c0,0,0,0,0,0l5.6-9.6c1.2-2,0.5-4.6-1.5-5.7c0,0,0,0,0,0l-1.2-0.7l3.5-6c0.4-0.7,0.2-1.5-0.5-1.9L83,23
			C83.6,22,83.7,20.9,83.4,19.8z M57,62.7c-0.2,0.3-0.5,0.6-0.9,0.7c-0.4,0.1-0.8,0-1.1-0.2c-0.6-0.4-0.8-1.2-0.4-1.8l0.7-1.2
			l2.4,1.4L57,62.7z M59.2,59.1l-0.7-0.4l-2.1-1.2l2-5.3l4.4,2.5L59.2,59.1z M64.4,52.4l-4.8-2.8l11.1-19.3l4.8,2.8L64.4,52.4z
			 M76.9,30.7l-4.8-2.8l2.8-4.8l4.8,2.8L76.9,30.7z M80.6,21.6l-0.7,1.2l-2.4-1.4l0.7-1.2c0.2-0.3,0.5-0.6,0.8-0.6
			c0.4-0.1,0.7,0,1.1,0.1c0.3,0.2,0.6,0.5,0.7,0.9C80.8,20.9,80.8,21.3,80.6,21.6z M23.9,62.5c0.5,0.5,0.6,1.3,0.1,1.9L19,69.3
			c-0.5,0.5-1.3,0.8-2,0.8c-0.7,0-1.5-0.3-2-0.8l-2.9-3c-0.6-0.5-0.6-1.4,0-2c0,0,0,0,0,0c0.5-0.6,1.4-0.6,2,0c0,0,0,0,0,0l2.9,3
			l5-4.9C22.5,61.9,23.4,62,23.9,62.5z M12.1,55.6c4-2,8.8-1.6,12.4,1.1c0.6,0.5,0.7,1.3,0.3,2c-0.5,0.6-1.3,0.7-2,0.3
			c-4-3-9.7-2.2-12.7,1.8S8,70.4,12,73.4c4,3,9.7,2.2,12.7-1.8c1.2-1.6,1.8-3.5,1.8-5.4c0-0.8,0.6-1.4,1.4-1.4
			c0.8,0,1.4,0.6,1.4,1.4C29.2,72.7,24,78,17.4,78c-6.5,0-11.8-5.3-11.9-11.8C5.6,61.7,8.1,57.6,12.1,55.6z M15.3,11.1v2.8h34.8
			c0.8,0.1,1.3,0.7,1.3,1.5c-0.1,0.7-0.6,1.2-1.3,1.3H13.9c-0.8,0-1.4-0.6-1.4-1.4v0V9.8c0-0.8,0.6-1.4,1.4-1.4h36.2
			c0.8,0.1,1.3,0.7,1.3,1.5c-0.1,0.7-0.6,1.2-1.3,1.3L15.3,11.1z M46,19.5c0.8,0.1,1.3,0.7,1.3,1.5c-0.1,0.7-0.6,1.2-1.3,1.3H18.1
			c-0.8-0.1-1.3-0.7-1.3-1.5c0.1-0.7,0.6-1.2,1.3-1.3L46,19.5z M55.7,30.6c0,0.8-0.6,1.4-1.4,1.4H23.7c-0.8-0.1-1.3-0.7-1.3-1.5
			c0.1-0.7,0.6-1.2,1.3-1.3h30.6C55.1,29.2,55.7,29.8,55.7,30.6C55.7,30.6,55.7,30.6,55.7,30.6z M39,40.4H11.1
			c-0.8,0-1.4-0.6-1.4-1.4c0-0.8,0.6-1.4,1.4-1.4H39c0.8,0,1.4,0.6,1.4,1.4C40.4,39.8,39.8,40.4,39,40.4z M55.7,39
			c0,0.8-0.6,1.4-1.4,1.4h-9.8c-0.8,0-1.4-0.6-1.4-1.4c0-0.8,0.6-1.4,1.4-1.4h9.8C55.1,37.6,55.7,38.2,55.7,39z M11.1,47.3
			c-0.8,0-1.4-0.6-1.4-1.4c0-0.8,0.6-1.4,1.4-1.4h13.9c0.8,0,1.4,0.6,1.4,1.4c0,0.8-0.6,1.4-1.4,1.4c0,0,0,0,0,0H11.1z M29.2,46
			c0-0.8,0.6-1.4,1.4-1.4h9.7c0.8,0,1.4,0.6,1.4,1.4c0,0.8-0.6,1.4-1.4,1.4c0,0,0,0,0,0h-9.7C29.9,47.4,29.2,46.8,29.2,46z
			 M64.1,65.5v13.9c0,2.3-1.9,4.2-4.2,4.2H4.2c-2.3,0-4.2-1.9-4.2-4.2c0,0,0,0,0,0V4.2C0,1.9,1.9,0,4.2,0h55.7
			c2.3,0,4.2,1.9,4.2,4.2v26.1c0,0.8-0.6,1.4-1.4,1.4c-0.8,0-1.4-0.6-1.4-1.4V4.2c0-0.8-0.6-1.4-1.4-1.4H4.2c-0.8,0-1.4,0.6-1.4,1.4
			l0,0v75.2c0,0.8,0.6,1.4,1.4,1.4h55.7c0.8,0,1.4-0.6,1.4-1.4V65.4c0-0.8,0.6-1.4,1.4-1.4C63.4,64.1,64.1,64.7,64.1,65.5L64.1,65.5
			z"/>
	</g>
</g>
</svg>
