<?xml version="1.0" encoding="utf-8"?>
<!-- Generator: Adobe Illustrator 24.0.3, SVG Export Plug-In . SVG Version: 6.00 Build 0)  -->
<svg version="1.1" id="Layer_1" xmlns="http://www.w3.org/2000/svg" xmlns:xlink="http://www.w3.org/1999/xlink" x="0px" y="0px"
	 viewBox="0 0 248 194" style="enable-background:new 0 0 248 194;" xml:space="preserve">
<style type="text/css">
	.st0{fill:#B2B2B2;}
</style>
<title>Asset 2</title>
<g id="Layer_2_1_">
	<g id="Layer_1-2">
		<path class="st0" d="M52.2,194v-4.9c-8.1-0.2-14.1-1.5-18-4c-3.9-2.5-5.8-6.6-5.8-12.4c0-5.7,1.8-13.2,5.5-22.4l11.3-28.9H110
			L81.9,194h6.3l25.6-66l25.2,66h27.2L138,121.4h44.7l16.9,44.8c2.1,5.4,3.2,9.7,3.2,12.8c0,3.7-1.5,6.2-4.5,7.6
			c-3,1.4-8,2.3-14.9,2.5v4.9H248v-4.9c-8.2-0.4-14.6-6.2-19.1-17.5L162,0h-4.4l-33.4,85.7L90.7,0h-4.4L21.6,165.4
			C16.3,179.1,9.1,187,0,189.1v4.9H52.2z M149.9,34.5l30.7,81.4h-44.8l-8.8-22.5L149.9,34.5z M78.6,34.5l30.7,81.4H47.1L78.6,34.5z"
			/>
	</g>
</g>
</svg>
