<?xml version="1.0" encoding="utf-8"?>
<!-- Generator: Adobe Illustrator 24.0.3, SVG Export Plug-In . SVG Version: 6.00 Build 0)  -->
<svg version="1.1" id="Layer_1" xmlns="http://www.w3.org/2000/svg" xmlns:xlink="http://www.w3.org/1999/xlink" x="0px" y="0px"
	 viewBox="0 0 24 24" style="enable-background:new 0 0 24 24;" xml:space="preserve">
<style type="text/css">
	.st0{fill:#1A5977;}
	.st1{fill:#FFFFFF;}
</style>
<path class="st0" d="M20,2.3H4c-1.1,0-2,0.9-2,2v18l4-4h14c1.1,0,2-0.9,2-2v-12C22,3.2,21.1,2.3,20,2.3z M6,14.3v-2.5l6.9-6.9
	c0.2-0.2,0.5-0.2,0.7,0l1.8,1.8c0.2,0.2,0.2,0.5,0,0.7l-6.9,6.9H6z M18,14.3h-7.5l2-2H18V14.3z"/>
<path class="st1" d="M20,2H4C2.9,2,2,2.9,2,4v18l4-4h14c1.1,0,2-0.9,2-2V4C22,2.9,21.1,2,20,2z M6,14v-2.5l6.9-6.9
	c0.2-0.2,0.5-0.2,0.7,0l1.8,1.8c0.2,0.2,0.2,0.5,0,0.7L8.5,14H6z M18,14h-7.5l2-2H18V14z"/>
</svg>
