<svg xmlns="http://www.w3.org/2000/svg" xmlns:xlink="http://www.w3.org/1999/xlink" viewBox="0 0 362.87 232.9"><defs><style>.cls-1{fill:url(#linear-gradient);}</style><linearGradient id="linear-gradient" y1="116.45" x2="362.87" y2="116.45" gradientUnits="userSpaceOnUse"><stop offset="0" stop-color="#3d3b6a"/><stop offset="0.21" stop-color="#3b395f"/><stop offset="0.48" stop-color="#373343"/><stop offset="0.67" stop-color="#343031"/><stop offset="1"/></linearGradient></defs><g id="Layer_2" data-name="Layer 2"><g id="Layer_1-2" data-name="Layer 1"><path class="cls-1" d="M102,58.55l-2.33.2-.87-9.93-2.69.24-.18-2,7.72-.68.18,2-2.69.24ZM107.89,48l.23,2.63,3.81-.33.18,2-3.81.33.28,3.23,4-.34.18,2-6.28.55-1.05-12,6.28-.55.18,2Zm13.29,1.53-.41-4.71,2.33-.2,1,12-2.33.2-.46-5.34-4.32.38.47,5.34-2.33.2-1-12,2.33-.21.41,4.71Zm13.8,9-.24-2.84-6.82.6.24,2.84-2.33.2-.41-4.74h0c1.36-.12,2.28-2.43,2.08-4.63l-.49-5.65,7.63-.66.88,10,1.33-.11.42,4.74Zm-2.46-12.78-3,.26.28,3.27c.22,2.41-.19,4.17-1,5l4.43-.38Zm7.61-.53.23,2.63,3.81-.33.18,2-3.81.33.28,3.23,4-.34.18,2-6.28.55-1-12,6.28-.55.18,2Zm9.57,9.16-2.33.21-1-12,3.17-.28c2.51-.22,4.23.64,4.46,3.35.23,2.54-1.05,3.9-3.49,4.11l-1.16.1Zm-.56-6.4.48,0c1.38-.12,2.1-.48,2-2s-1-1.68-2.34-1.57l-.41,0Zm13.51-2-.42-4.71,2.33-.21,1.05,12-2.33.21-.47-5.35-4.31.38.47,5.34-2.34.21-1-12,2.33-.21.41,4.72Zm9.24,6.49-3.66.32-1-12,2.33-.2.42,4.76,1.39-.12c2.06-.18,3.85.73,4.07,3.25S174.06,52.24,171.89,52.43Zm-1.5-1.82.49,0c1.25-.11,2.32-.36,2.18-1.91s-1.41-1.51-2.58-1.41l-.38,0Zm7.83-10.78,1,12-2.33.2-1-12ZM188.52,51l-.66-7.55h0l-4.27,8-1.68.15-1-12,2.33-.2.66,7.47h0l4.28-7.9,1.68-.14,1.05,12Zm-4.3-14.18a1.19,1.19,0,0,0,2.37-.21l1.54.18a2.77,2.77,0,0,1-5.39.48Zm13.63,7.32a5.95,5.95,0,1,1,11.83-1,6,6,0,1,1-11.83,1Zm2.4-.3c.16,1.8,1.88,4,3.86,3.8s3.31-2.61,3.15-4.42a3.54,3.54,0,1,0-7,.62Zm16,4.73-2.33.2-.87-9.92-2.7.23-.17-2,7.72-.67.18,2-2.7.23ZM229,50.3l-.25-2.84-6.82.6.25,2.84-2.33.2-.41-4.74h0c1.37-.12,2.28-2.43,2.09-4.63l-.49-5.65,7.63-.66.88,10,1.33-.11.41,4.74Zm-2.46-12.78-3,.26.28,3.27c.21,2.41-.19,4.17-1,5l4.42-.38Zm7.61-.53.23,2.63,3.8-.33.18,2-3.81.33.29,3.23,3.95-.34.17,2-6.28.55-1-12,6.28-.55.18,2Zm13.33,8.83-.88-10-2.9.25.48,5.46c.25,2.9-.24,4.65-3.44,4.93l-.35,0-.16-1.87h.12c1.59-.14,1.63-1.28,1.51-2.73l-.66-7.51,7.57-.66,1,12ZM72.57,80.3l-1.14-2.45-4.16.37-.76,2.61L64.05,81l3.51-12.36,2-.17,5.47,11.57Zm-3.83-8.51h0l-.94,4.47L70.61,76Zm13.85,7.63-.88-10.06-2.9.26.47,5.45c.26,2.91-.23,4.66-3.43,4.94l-.35,0-.16-1.87h.12c1.59-.14,1.63-1.28,1.51-2.74l-.66-7.5,7.56-.66,1,11.95ZM89,68.85l.23,2.64,3.8-.34.18,2-3.8.34.28,3.23,4-.34.18,2L87.53,79l-1-12,6.28-.55.18,2Zm7.27,9.37-1-12,2.33-.2L98,70.77l1.25-.11c.76-.07.88-1.07,1.09-2.16.26-1.3.71-2.74,2.45-2.9l.84-.07.16,1.84-.41,0c-.4,0-.69.33-.84,1l-.29,1.38a2.25,2.25,0,0,1-.82,1.42v0a1.56,1.56,0,0,1,1,.9L103.73,75c.22.5.58.59,1.13.54H105l.16,1.87-.65.06a2.76,2.76,0,0,1-2.93-1.58l-1.23-2.75c-.2-.43-.46-.65-.87-.61l-1.33.11L98.6,78Zm17.91-10.8a4.34,4.34,0,0,0-2.89-.71c-2.23.2-3.33,2.43-3.15,4.5s1.69,4,3.86,3.8a4.2,4.2,0,0,0,2.87-1.72l1.51,1.7a6.45,6.45,0,0,1-4.25,2.16,6,6,0,0,1-6.4-5.68c-.29-3.4,1.84-6.61,5.34-6.91a6.25,6.25,0,0,1,4.14.93Zm11.4,8.24-1.14-2.44-4.16.36-.76,2.61-2.46.21,3.51-12.35,2-.18,5.47,11.57Zm-3.83-8.5h0l-.94,4.46,2.84-.25Zm13.8.32-.41-4.71,2.33-.2,1.05,12-2.33.2-.47-5.34-4.32.37.47,5.35-2.33.2-1-12,2.33-.2.41,4.71Zm13.81,9-.25-2.84-6.82.6.25,2.84-2.33.2-.42-4.74h.05c1.36-.12,2.28-2.42,2.09-4.62l-.5-5.65,7.63-.67.88,10.06,1.34-.12.41,4.75ZM146.9,63.66l-3,.26.29,3.27c.21,2.41-.2,4.17-1,5l4.42-.39Zm8.44,9.4-2.33.2-1-12,3.18-.28c2.5-.22,4.22.64,4.46,3.35.22,2.54-1,3.9-3.49,4.11l-1.16.1Zm-.56-6.41.48,0c1.38-.12,2.1-.49,2-2s-1-1.68-2.34-1.56l-.42,0Zm11.15,5.48-3.66.32-1.05-12,2.34-.2.41,4.76,1.4-.13c2.06-.18,3.85.74,4.07,3.26S168.11,71.94,165.93,72.13Zm-1.5-1.82.49,0c1.26-.11,2.32-.36,2.19-1.92s-1.41-1.51-2.59-1.4l-.38,0Zm7.83-10.78,1.05,12-2.33.21-1-12Zm16.21,10.63-1.14-2.44-4.16.36-.76,2.61L180,70.9l3.51-12.35,2-.18L191,69.94Zm-3.83-8.5h0l-.94,4.46,2.84-.25ZM199.5,60a4.34,4.34,0,0,0-2.89-.71c-2.24.2-3.34,2.43-3.16,4.49s1.69,4,3.87,3.81a4.26,4.26,0,0,0,2.87-1.72l1.5,1.7a6.42,6.42,0,0,1-4.25,2.16A6.05,6.05,0,0,1,191,64c-.29-3.39,1.84-6.6,5.35-6.9a6.28,6.28,0,0,1,4.14.93Zm8.17,8.52-2.33.2-.87-9.93-2.69.24-.18-2,7.72-.68.18,2-2.7.24Zm10.93-1-1.14-2.44-4.16.37-.76,2.6-2.46.22,3.51-12.36,2-.18,5.47,11.58ZM214.77,59h0l-.94,4.46,2.84-.24Zm13.8.33-.41-4.71,2.33-.21,1,12-2.33.2-.47-5.34-4.32.38.47,5.34-2.33.21-1.05-12,2.34-.21.41,4.71Zm5.58,6.81-1-12,2.33-.2.41,4.71,1.25-.11c.76-.07.88-1.07,1.09-2.16.26-1.3.7-2.74,2.45-2.9l.84-.07.16,1.84-.41,0c-.4,0-.69.33-.84,1l-.29,1.38a2.25,2.25,0,0,1-.82,1.42v0a1.56,1.56,0,0,1,1,.9L241.61,63c.22.49.58.58,1.13.53h.13l.16,1.88-.65,0a2.75,2.75,0,0,1-2.93-1.58l-1.23-2.75c-.2-.43-.46-.65-.87-.61l-1.33.11.46,5.35Zm9.56-6.87a6,6,0,1,1,6.47,5.79A6.06,6.06,0,0,1,243.71,59.29Zm2.41-.31c.15,1.81,1.88,4,3.86,3.8s3.3-2.61,3.15-4.41a3.54,3.54,0,1,0-7,.61Zm11.26-6.9,2.91-.25c2.22-.2,3.7.55,3.91,2.93a2.77,2.77,0,0,1-.89,2.41A2.83,2.83,0,0,1,265.62,60c.2,2.35-1.35,3.54-3.53,3.73l-3.66.32Zm2.77,4.78.29,0c1.08-.09,1.66-.48,1.56-1.72s-.84-1.47-1.82-1.39l-.3,0Zm.45,5.1.49,0c1.25-.11,2.32-.36,2.18-1.92s-1.41-1.5-2.58-1.4l-.38,0Zm6.6-4.73a6,6,0,1,1,6.47,5.8A6.07,6.07,0,0,1,267.2,57.23Zm2.4-.3c.16,1.8,1.88,4,3.86,3.8s3.31-2.61,3.15-4.42a3.54,3.54,0,1,0-7,.62Zm19,4.47-.66-7.55h0l-4.27,8-1.68.14L280.87,50l2.33-.21.65,7.47h0l4.28-7.9,1.68-.15,1,12Zm-4.31-14.18a1.23,1.23,0,0,0,1.29,1c.7-.06,1-.58,1.09-1.23l1.54.19a2.78,2.78,0,0,1-5.4.47ZM167.86,91.45a6.42,6.42,0,0,1-4.56-1.39l1.19-1.94a4.17,4.17,0,0,0,3.12,1.2,3.75,3.75,0,0,0,3.17-3.83l-4.71.42L165.9,84l4.59-.4A3.58,3.58,0,0,0,166.87,81a4.23,4.23,0,0,0-2.72,1.21L162.8,80.5a6.25,6.25,0,0,1,3.92-1.63c3.5-.31,6.16,2.48,6.45,5.87A6,6,0,0,1,167.86,91.45Zm11.87-1.35-2.33.2-.87-9.93-2.7.24-.17-2,7.72-.68.18,2-2.7.24Zm3.19-6.32a6,6,0,1,1,6.46,5.79A6,6,0,0,1,182.92,83.78Zm2.4-.31c.16,1.81,1.88,4,3.86,3.8s3.31-2.6,3.15-4.41a3.54,3.54,0,1,0-7,.61ZM78.87,144.12l-.43-4.93-11.85,1,.43,4.93-4,.35-.72-8.24h.09c2.36-.21,4-4.21,3.62-8l-.85-9.8,13.25-1.16,1.52,17.46,2.32-.2.72,8.24Zm-4.28-22.19-5.15.45.5,5.67c.37,4.19-.34,7.25-1.79,8.71l7.68-.67Zm9.33,6.29c-.51-5.81,3.26-11.28,9.32-11.81s10.72,4.2,11.23,10-3.26,11.33-9.32,11.86S84.44,134.17,83.92,128.22Zm4.17-.53c.28,3.14,3.27,6.9,6.71,6.6s5.74-4.53,5.47-7.67c-.3-3.36-3.13-6.52-6.68-6.21S87.8,124.33,88.09,127.69Zm31.2,7.93-1.52-17.47-5,.44.83,9.48c.44,5-.4,8.08-6,8.57l-.61.05-.28-3.25.22,0c2.75-.24,2.83-2.21,2.61-4.75l-1.14-13,13.14-1.15,1.81,20.77Zm11.14-18.35,1.51,17.24-4,.36-1.82-20.77,10.86-.95.3,3.52Zm10.16,6c-.51-5.81,3.26-11.27,9.32-11.8s10.72,4.19,11.23,10-3.26,11.33-9.32,11.86S141.11,129.21,140.59,123.26Zm4.17-.53c.27,3.14,3.27,6.9,6.71,6.6s5.74-4.52,5.47-7.66c-.3-3.36-3.13-6.53-6.68-6.22S144.47,119.37,144.76,122.73Zm34.66-8.42a7.64,7.64,0,0,0-5-1.22c-3.89.34-5.8,4.22-5.48,7.81s2.93,6.93,6.71,6.6a7.24,7.24,0,0,0,5-3l2.62,3a11.21,11.21,0,0,1-7.39,3.76c-5.84.51-10.6-4.16-11.1-9.89-.52-5.89,3.19-11.46,9.27-12a10.85,10.85,0,0,1,7.2,1.62Zm11,15.09-4.05.35L184.5,109l5.51-.48c4.36-.38,7.34,1.11,7.76,5.82.38,4.41-1.83,6.77-6.07,7.14l-2,.17Zm-1-11.13.82-.07c2.4-.21,3.65-.85,3.41-3.55s-1.81-2.92-4.07-2.72l-.71.06Zm11.66-.3c-.51-5.81,3.26-11.27,9.32-11.8s10.72,4.19,11.23,10-3.26,11.33-9.32,11.86S201.58,123.92,201.06,118Zm4.17-.53c.27,3.14,3.27,6.91,6.71,6.6s5.74-4.52,5.47-7.66c-.3-3.36-3.13-6.53-6.68-6.22S204.94,114.08,205.23,117.44Zm27.23,0c-6,.52-7.65-2.38-8.07-7.17l-.41-4.69,4.05-.35.43,5c.29,3.25,1.06,4.18,4,3.92,1.24-.11,3.32-.48,3.32-.48l-.79-9,4.05-.36L240.87,125l-4.05.36-.75-8.54S233.67,117.29,232.46,117.39Zm23.39-6.4-.71-8.18,4.05-.36L261,123.22l-4,.36-.82-9.29-7.49.66.81,9.28-4.05.36-1.81-20.77,4.05-.36.71,8.18Zm8.35,1.46c-.51-5.81,3.26-11.28,9.32-11.81s10.72,4.2,11.23,10-3.26,11.34-9.32,11.87S264.72,118.4,264.2,112.45Zm4.17-.53c.28,3.14,3.27,6.9,6.71,6.6s5.74-4.52,5.47-7.67c-.3-3.36-3.13-6.52-6.68-6.21S268.08,108.56,268.37,111.92Zm23.94-8.81.4,4.57,6.61-.58.31,3.53-6.61.58.49,5.62,6.86-.6.31,3.52-10.91,1L288,99.94l10.91-1,.31,3.53ZM45,175.43,43.8,162.32h0l-7.42,13.87-2.92.25-1.82-20.77,4.05-.35,1.13,13h.06l7.43-13.73,2.92-.25L49,175.08Zm15.73-22.3,5-.44c3.86-.34,6.44,1,6.81,5.09A4.84,4.84,0,0,1,71,162c2.49.23,3.81,2.61,4,4.89.35,4.08-2.35,6.15-6.13,6.48l-6.36.56Zm4.81,8.29.49,0c1.88-.17,2.9-.84,2.71-3s-1.44-2.56-3.15-2.41L65,156Zm.77,8.87.86-.07c2.17-.19,4-.63,3.79-3.33s-2.45-2.62-4.49-2.44l-.66.06Zm21.63-9.83c2,.44,3.22,2.91,3.39,4.81.36,4.08-2.12,6.85-6.75,7.25a7.76,7.76,0,0,1-7.13-3.45l2.32-2.7A5,5,0,0,0,84.11,169a3.43,3.43,0,0,0,3.18-3.64c-.14-1.65-1.11-3.23-3.21-3.05l-2,.17-.25-2.83,1.68-.15a2.59,2.59,0,0,0,2.48-3.1c-.12-1.38-1-2.58-3.24-2.38a4.34,4.34,0,0,0-3.32,2.26l-2.22-2.47a8.34,8.34,0,0,1,5.91-3.21c3.94-.35,6.4,1.74,6.71,5.32C90,157.53,89.35,159.72,87.89,160.46ZM108,169.91l-2-4.24-7.22.63-1.33,4.53-4.27.38,6.09-21.46,3.53-.31,9.5,20.1Zm-6.65-14.76h-.06l-1.62,7.75,4.93-.43Zm25.08,13.15-1.15-13.11h0l-7.42,13.87-2.92.25-1.82-20.77,4-.35,1.13,13h.06l7.43-13.73,2.92-.25L130.52,168Zm23.25-15h-.06l-3.47,13.3-1.6.14L139,154.21H139l-1.27,13.1-4.08.36,2.15-21.12,3.17-.28L145,159l3.56-13.55,3.2-.28,5.4,20.46-4.08.36Zm8.57,1.75c-.51-5.82,3.26-11.28,9.32-11.81s10.72,4.2,11.23,10-3.26,11.33-9.32,11.86S158.81,161,158.29,155Zm4.17-.54c.27,3.15,3.27,6.91,6.71,6.61s5.74-4.53,5.46-7.67c-.29-3.36-3.12-6.53-6.67-6.22S162.16,151.13,162.46,154.49Zm19.58-12,5-.44c3.85-.34,6.44,1,6.8,5.1a4.83,4.83,0,0,1-1.55,4.18c2.49.23,3.81,2.61,4,4.9.36,4.08-2.35,6.15-6.12,6.48l-6.37.55Zm4.8,8.3.5-.05c1.87-.16,2.89-.83,2.71-3s-1.45-2.57-3.16-2.42l-.52,0Zm.78,8.87.85-.08c2.18-.19,4-.63,3.79-3.33s-2.45-2.61-4.49-2.44l-.66.06Zm19.18,1.6-6.36.55-1.82-20.77,4-.35.72,8.26,2.43-.21c3.58-.31,6.69,1.27,7.07,5.65S210.57,161,206.8,161.28Zm-2.61-3.16.86-.08c2.17-.19,4-.63,3.79-3.33s-2.45-2.61-4.49-2.44l-.66.06Zm13.6-18.74,1.82,20.77-4.05.36-1.82-20.77Zm8.91,2.78,1.51,17.24-4.05.36L222.34,139l10.85-1,.31,3.52Zm10.16,6c-.51-5.81,3.26-11.27,9.32-11.8s10.72,4.19,11.23,10-3.26,11.33-9.32,11.86S237.38,154.1,236.86,148.15Zm4.17-.53c.27,3.14,3.27,6.91,6.71,6.6s5.74-4.52,5.46-7.66c-.29-3.36-3.12-6.53-6.67-6.22S240.73,144.26,241,147.62ZM276,160.19l-.43-4.93-11.85,1,.43,4.93-4.05.35-.72-8.23h.08c2.37-.21,4-4.2,3.63-8l-.86-9.81,13.25-1.16L277,151.81l2.32-.21.72,8.24ZM271.69,138l-5.15.45.5,5.68c.36,4.18-.34,7.24-1.79,8.7l7.68-.67Zm21.12,3.07-.72-8.18,4.05-.36L298,153.3l-4,.36-.81-9.29-7.49.66.81,9.28-4.05.36-1.82-20.77,4.05-.36.72,8.18Zm8.35,1.46c-.51-5.81,3.26-11.28,9.32-11.81s10.72,4.2,11.23,10-3.26,11.33-9.32,11.87S301.68,148.48,301.16,142.53Zm4.17-.53c.27,3.14,3.27,6.9,6.71,6.6s5.74-4.53,5.46-7.67c-.29-3.36-3.12-6.52-6.67-6.21S305,138.64,305.33,142Zm23.93-8.81.4,4.57,6.61-.58.31,3.53-6.61.58.49,5.62,6.86-.6.31,3.52-10.91,1L324.91,130l10.9-1,.31,3.53Zm-255.77,57a7.64,7.64,0,0,0-5-1.22c-3.89.34-5.8,4.22-5.48,7.8s2.94,6.94,6.71,6.61a7.21,7.21,0,0,0,5-3l2.62,3a11.2,11.2,0,0,1-7.38,3.76c-5.84.51-10.61-4.16-11.11-9.89-.52-5.89,3.19-11.46,9.27-12a10.85,10.85,0,0,1,7.2,1.62Zm5.61,5.07c-.51-5.82,3.26-11.28,9.32-11.81s10.72,4.19,11.23,10-3.26,11.33-9.32,11.86S79.62,201.21,79.1,195.27Zm4.17-.54c.27,3.14,3.27,6.91,6.71,6.61s5.74-4.53,5.46-7.67c-.29-3.36-3.12-6.53-6.67-6.22S83,191.37,83.27,194.73ZM111.14,203l-4,.36-1.51-17.25-4.68.41-.31-3.52L114,181.77l.31,3.53-4.68.41Zm11.73-1-4.05.35L117,181.51l5.51-.48c4.35-.38,7.34,1.11,7.75,5.82.38,4.4-1.82,6.76-6.07,7.13l-2,.18Zm-1-11.13.83-.07c2.39-.21,3.64-.85,3.4-3.55s-1.81-2.92-4.06-2.72l-.72.06Zm20.28,4.28c-.88,2.63-2.12,5.34-5.42,5.63l-1.19.11-.28-3.25.49,0a2.33,2.33,0,0,0,2.07-1.73l.87-2.13L131,180.29l4.58-.4,4.75,9h.09l2.68-9.65,4.54-.39Zm22,8.2-.43-4.93-11.84,1,.43,4.93-4.05.35-.72-8.23h.08c2.37-.21,4-4.21,3.63-8l-.86-9.8,13.25-1.16,1.53,17.46,2.31-.2.72,8.24Zm-4.27-22.19-5.15.45.5,5.67c.36,4.19-.34,7.25-1.8,8.71l7.69-.67Zm21.12,3.06-.72-8.18,4-.35,1.82,20.77-4.05.35-.81-9.28-7.5.66.81,9.28-4,.35L168.8,177l4-.35.71,8.18ZM202.3,195l-1.15-13.11h-.06l-7.42,13.87-2.92.25-1.81-20.77,4.05-.35,1.13,13h.06l7.43-13.73,2.92-.25,1.81,20.77Zm14.42-9.59c-6,.53-7.64-2.38-8.06-7.18l-.41-4.68,4.05-.35.43,5c.29,3.25,1.06,4.18,4,3.92,1.24-.11,3.31-.48,3.31-.48l-.78-9,4-.36L225.13,193l-4,.36-.74-8.54S217.94,185.29,216.72,185.39Zm15.5-10.4.4,4.57,6.61-.58.31,3.53-6.61.58.49,5.62,6.86-.6.31,3.52-10.91,1-1.82-20.77,10.91-1,.31,3.53Zm25.9-.94a7.64,7.64,0,0,0-5-1.22c-3.88.34-5.79,4.23-5.48,7.81s2.94,6.93,6.71,6.6a7.24,7.24,0,0,0,5-3l2.62,3a11.23,11.23,0,0,1-7.39,3.76c-5.84.51-10.61-4.16-11.11-9.88-.51-5.9,3.19-11.47,9.28-12a10.79,10.79,0,0,1,7.19,1.62Zm14.21,14.81-4.05.35L266.77,172l-4.69.41-.3-3.53,13.41-1.17.31,3.52-4.68.41Zm5.92-21.45,5-.44c3.86-.34,6.44,1,6.8,5.09a4.81,4.81,0,0,1-1.55,4.19c2.49.23,3.81,2.61,4,4.9.36,4.07-2.35,6.14-6.12,6.47l-6.36.56Zm4.81,8.3.49-.05c1.88-.16,2.9-.84,2.71-3s-1.44-2.57-3.15-2.42l-.53.05Zm.77,8.86.86-.07c2.17-.19,4-.63,3.79-3.33s-2.45-2.62-4.49-2.44l-.66.06Zm11.47-8.21c-.51-5.82,3.26-11.28,9.32-11.81s10.72,4.19,11.23,10-3.26,11.33-9.32,11.86S295.82,182.3,295.3,176.36Zm4.17-.54c.28,3.14,3.27,6.91,6.71,6.61s5.74-4.53,5.47-7.67c-.3-3.36-3.13-6.53-6.68-6.22S299.18,172.46,299.47,175.82ZM23.6,232.9a7,7,0,0,1-7-6.39L0,36.67a7,7,0,0,1,6.36-7.58L338.66,0a7,7,0,0,1,7.58,6.36l16.6,189.84a7,7,0,0,1-6.36,7.58L24.21,232.87C24,232.89,23.8,232.9,23.6,232.9ZM339.27,2l-.44,0L6.56,31.08a5,5,0,0,0-3.38,1.77A4.92,4.92,0,0,0,2,36.5l16.6,189.83A5,5,0,0,0,24,230.88l332.27-29.06a5,5,0,0,0,3.39-1.77,5,5,0,0,0,1.15-3.65L344.25,6.57a5,5,0,0,0-5-4.57Z"/></g></g></svg>