<svg xmlns="http://www.w3.org/2000/svg" viewBox="0 0 1143.48 268.79"><defs><style>.cls-1{fill:#9dc2df;}</style></defs><g id="Layer_2" data-name="Layer 2"><g id="Layer_1-2" data-name="Layer 1"><rect class="cls-1" x="297.98" y="117.56" width="86.49" height="10.61"/><rect class="cls-1" x="297.98" y="146.61" width="86.49" height="10.62"/><path class="cls-1" d="M268.26,201.06,189.83,0h-5.2L145.41,100.37,106.24,0h-5.18L25.31,193.74Q16,218,0,221.54v6.38H61.14v-6.38q-14.32-.31-21.13-4.69t-6.84-14.52q0-10,6.43-26.22l13.22-33.9h76.07l-47.15,122,3.17,4.61h121.5l3.14-4.71-5.35-12.52L161.72,142.21h52.33l19.79,52.46c2.52,6.37,3.77,11.34,3.77,15,0,4.28-1.75,7.26-5.28,8.91s-9.34,2.65-17.5,3v6.38h75.76v-6.38Q276.13,220.9,268.26,201.06ZM55.18,135.82,92.09,40.43l36,95.39ZM176.09,262H89.88l43.51-112ZM159.22,135.82,149,109.49l26.73-69.06,36,95.39Z"/><path class="cls-1" d="M543.66,92.75V81.21H515.94V92.75h-9.48V73.47h.19c5.55,0,10.06-9,10.06-17.92V32.6h31V73.47h5.41V92.75Zm-5.42-52.42h-12V53.61c0,9.8-2.26,16.77-5.93,19.86h18Z"/><path class="cls-1" d="M558.62,56.84c0-13.61,9.86-25.53,24-25.53s24.05,11.92,24.05,25.53c0,13.92-9.86,25.66-24.05,25.66S558.62,70.76,558.62,56.84Zm9.8-.39c0,7.35,6.19,16.7,14.24,16.7s14.25-9.35,14.25-16.7c0-7.86-5.93-15.79-14.25-15.79S568.42,48.59,568.42,56.45Z"/><path class="cls-1" d="M639.27,81.21V40.33H627.48V62.51c0,11.8-2.58,18.7-15.61,18.7h-1.41V73.6H611c6.45,0,7-4.58,7-10.51V32.6h30.75V81.21Z"/><path class="cls-1" d="M668.87,40.85V81.21h-9.48V32.6h25.4v8.25Z"/><path class="cls-1" d="M691.24,56.84c0-13.61,9.86-25.53,24-25.53s24,11.92,24,25.53c0,13.92-9.86,25.66-24,25.66S691.24,70.76,691.24,56.84Zm9.8-.39c0,7.35,6.19,16.7,14.25,16.7s14.24-9.35,14.24-16.7c0-7.86-5.93-15.79-14.24-15.79S701,48.59,701,56.45Z"/><path class="cls-1" d="M783.24,43.94a17.81,17.81,0,0,0-11.41-3.86c-9.09,0-14.31,8.63-14.31,17,0,8.18,5.41,16.69,14.25,16.69,6.7,0,10.76-4.51,12.18-5.93l5.48,7.42a26.14,26.14,0,0,1-17.92,7.22c-13.67,0-23.79-11.8-23.79-25.21,0-13.8,9.73-26,24-26,9.8,0,15.34,4.32,16.38,5.22Z"/><path class="cls-1" d="M805.61,81.21h-9.47V32.6H809c10.19,0,16.83,4.06,16.83,15.08C825.86,58,820.25,63,810.32,63h-4.71Zm0-26h1.94c5.61,0,8.64-1.22,8.64-7.54s-3.61-7.16-8.9-7.16h-1.68Z"/><path class="cls-1" d="M832.76,56.84c0-13.61,9.86-25.53,24-25.53s24.05,11.92,24.05,25.53c0,13.92-9.86,25.66-24.05,25.66S832.76,70.76,832.76,56.84Zm9.8-.39c0,7.35,6.19,16.7,14.24,16.7s14.25-9.35,14.25-16.7c0-7.86-5.93-15.79-14.25-15.79S842.56,48.59,842.56,56.45Z"/><path class="cls-1" d="M905.8,61.87c-14,0-17.27-7.1-17.27-18.31v-11H898V44.2c0,7.61,1.62,9.93,8.51,9.93,2.9,0,7.8-.45,7.8-.45V32.6h9.48V81.21h-9.48v-20S908.64,61.87,905.8,61.87Z"/><path class="cls-1" d="M961.44,51.74V32.6h9.48V81.21h-9.48V59.48H943.91V81.21h-9.48V32.6h9.48V51.74Z"/><path class="cls-1" d="M980.53,56.84c0-13.61,9.86-25.53,24.05-25.53s24,11.92,24,25.53c0,13.92-9.86,25.66-24,25.66S980.53,70.76,980.53,56.84Zm9.8-.39c0,7.35,6.19,16.7,14.25,16.7s14.24-9.35,14.24-16.7c0-7.86-5.93-15.79-14.24-15.79S990.33,48.59,990.33,56.45Z"/><path class="cls-1" d="M1047.71,40.85v10.7h15.47V59.8h-15.47V73h16v8.26h-25.53V32.6h25.53v8.25Z"/><path class="cls-1" d="M458.52,158.57V127.89h-.13l-20.05,30.68h-6.83V110H441v30.36h.13l20-30.36H468v48.6Z"/><path class="cls-1" d="M499.59,110h11.8c9,0,14.76,3.54,14.76,13.21,0,3.48-1.41,7.48-4.44,9.41,5.73,1,8.31,6.84,8.31,12.19,0,9.54-6.7,13.79-15.53,13.79h-14.9Zm9.48,20.24h1.16c4.38,0,6.9-1.35,6.9-6.38,0-4.71-2.84-6.26-6.84-6.26h-1.22Zm0,20.76h2c5.09,0,9.47-.65,9.47-7s-5.15-6.57-9.92-6.57h-1.55Z"/><path class="cls-1" d="M561.29,132.53c4.58,1.42,6.9,7.41,6.9,11.86,0,9.54-6.32,15.47-17.15,15.47a18.14,18.14,0,0,1-15.86-9.47l5.93-5.8c1.23,3.35,5.61,7,9.67,7a8,8,0,0,0,8.13-7.8c0-3.87-1.94-7.73-6.84-7.73h-4.64v-6.64h3.93c4.06,0,6.39-2.65,6.39-6.71,0-3.22-1.81-6.19-7-6.19a10.24,10.24,0,0,0-8.19,4.58l-4.64-6.19a19.43,19.43,0,0,1,14.38-6.25c9.22,0,14.5,5.35,14.5,13.73C566.77,126.15,564.84,131.11,561.29,132.53Z"/><path class="cls-1" d="M606.16,158.57l-3.73-10.25h-16.9l-4,10.25h-10L590.05,110h8.25l18,48.6Zm-12.44-35.65h-.13l-5.35,17.67h11.54Z"/><path class="cls-1" d="M649.3,158.57V127.89h-.13l-20,30.68h-6.84V110h9.48v30.36h.13L651.94,110h6.83v48.6Z"/><path class="cls-1" d="M706.35,128.4h-.13l-10.76,30.17h-3.74L681.28,128.4h-.13l-5.61,30.17H666l9.28-48.6h7.41l11.48,30.75,11-30.75h7.48l8.38,48.6h-9.54Z"/><path class="cls-1" d="M725.89,134.21c0-13.61,9.87-25.53,24.05-25.53s24,11.92,24,25.53c0,13.92-9.87,25.65-24,25.65S725.89,148.13,725.89,134.21Zm9.8-.39c0,7.35,6.19,16.7,14.25,16.7s14.25-9.35,14.25-16.7c0-7.87-5.93-15.8-14.25-15.8S735.69,126,735.69,133.82Z"/><path class="cls-1" d="M783.6,110h11.79c9,0,14.77,3.54,14.77,13.21,0,3.48-1.42,7.48-4.45,9.41,5.74,1,8.32,6.84,8.32,12.19,0,9.54-6.71,13.79-15.54,13.79H783.6Zm9.47,20.24h1.16c4.39,0,6.9-1.35,6.9-6.38,0-4.71-2.84-6.26-6.83-6.26h-1.23Zm0,20.76h2c5.09,0,9.48-.65,9.48-7s-5.16-6.57-9.93-6.57h-1.55Z"/><path class="cls-1" d="M837.3,158.57H822.41V110h9.47v19.34h5.68c8.38,0,15.28,4.32,15.28,14.57C852.84,154.45,846.13,158.57,837.3,158.57Zm-5.42-7.86h2c5.1,0,9.48-.64,9.48-7s-5.16-6.58-9.93-6.58h-1.55ZM867.28,110v48.6H857.8V110Z"/><path class="cls-1" d="M887.4,118.22v40.35h-9.48V110h25.4v8.25Z"/><path class="cls-1" d="M909.77,134.21c0-13.61,9.86-25.53,24.05-25.53s24,11.92,24,25.53c0,13.92-9.86,25.65-24,25.65S909.77,148.13,909.77,134.21Zm9.8-.39c0,7.35,6.19,16.7,14.25,16.7s14.24-9.35,14.24-16.7c0-7.87-5.93-15.8-14.24-15.8S919.57,126,919.57,133.82Z"/><path class="cls-1" d="M998.16,170.11V158.57H970.44v11.54H961V150.84h.2c5.54,0,10.05-9,10.05-17.92V110h31v40.87h5.42v19.27Zm-5.41-52.41H980.69V131c0,9.8-2.26,16.76-5.93,19.86h18Z"/><path class="cls-1" d="M1041.16,129.11V110h9.48v48.6h-9.48V136.85h-17.53v21.72h-9.48V110h9.48v19.14Z"/><path class="cls-1" d="M1060.25,134.21c0-13.61,9.86-25.53,24-25.53s24,11.92,24,25.53c0,13.92-9.86,25.65-24,25.65S1060.25,148.13,1060.25,134.21Zm9.8-.39c0,7.35,6.19,16.7,14.25,16.7s14.24-9.35,14.24-16.7c0-7.87-5.93-15.8-14.24-15.8S1070.05,126,1070.05,133.82Z"/><path class="cls-1" d="M1127.43,118.22v10.7h15.47v8.25h-15.47v13.15h16v8.25H1118V110h25.53v8.25Z"/><path class="cls-1" d="M532.28,198.68a17.73,17.73,0,0,0-11.41-3.87c-9.09,0-14.31,8.64-14.31,17,0,8.19,5.41,16.7,14.24,16.7,6.71,0,10.77-4.51,12.19-5.93l5.48,7.41a26.14,26.14,0,0,1-17.92,7.22c-13.67,0-23.79-11.8-23.79-25.21,0-13.79,9.73-26,24-26,9.8,0,15.34,4.32,16.38,5.23Z"/><path class="cls-1" d="M544.27,211.57c0-13.6,9.87-25.53,24.05-25.53s24,11.93,24,25.53c0,13.93-9.87,25.66-24,25.66S544.27,225.5,544.27,211.57Zm9.8-.38c0,7.35,6.19,16.69,14.25,16.69s14.25-9.34,14.25-16.69c0-7.87-5.93-15.8-14.25-15.8S554.07,203.32,554.07,211.19Z"/><path class="cls-1" d="M617.13,235.94h-9.48V195.59h-11v-8.26h31.4v8.26h-11Z"/><path class="cls-1" d="M644.59,235.94h-9.47V187.33H648c10.19,0,16.83,4.07,16.83,15.09,0,10.31-5.61,15.34-15.54,15.34h-4.71Zm0-26h1.94c5.61,0,8.64-1.23,8.64-7.54s-3.61-7.16-8.9-7.16h-1.68Z"/><path class="cls-1" d="M690.82,224c-2.58,5.93-6,12-13.73,12h-2.77v-7.6h1.16c2,0,3.74-.84,5.15-3.61l2.45-4.78L667.8,187.33h10.71l9.22,21.86h.19l8.19-21.86h10.63Z"/><path class="cls-1" d="M740.33,247.48V235.94H712.61v11.54h-9.47V228.21h.19c5.54,0,10.06-9,10.06-17.93V187.33h31v40.88h5.41v19.27Zm-5.41-52.41H722.86v13.28c0,9.8-2.25,16.76-5.93,19.86h18Z"/><path class="cls-1" d="M783.34,206.48V187.33h9.47v48.61h-9.47V214.22H765.8v21.72h-9.47V187.33h9.47v19.15Z"/><path class="cls-1" d="M830.47,235.94V205.26h-.13l-20.05,30.68h-6.83V187.33h9.47V217.7h.13l20.05-30.37h6.83v48.61Z"/><path class="cls-1" d="M865.93,216.6c-14,0-17.28-7.09-17.28-18.31v-11h9.48v11.61c0,7.61,1.61,9.93,8.51,9.93,2.9,0,7.8-.46,7.8-.46V187.33h9.47v48.61h-9.47V216S868.76,216.6,865.93,216.6Z"/><path class="cls-1" d="M904,195.59v10.7H919.5v8.25H904v13.15h16.05v8.25H894.55V187.33h25.53v8.26Z"/><path class="cls-1" d="M964.38,198.68A17.76,17.76,0,0,0,953,194.81c-9.1,0-14.32,8.64-14.32,17,0,8.19,5.42,16.7,14.25,16.7,6.71,0,10.77-4.51,12.19-5.93l5.48,7.41a26.17,26.17,0,0,1-17.93,7.22c-13.66,0-23.79-11.8-23.79-25.21,0-13.79,9.74-26,24-26,9.8,0,15.34,4.32,16.37,5.23Z"/><path class="cls-1" d="M994.36,235.94h-9.48V195.59h-11v-8.26h31.4v8.26h-11Z"/><path class="cls-1" d="M1012.48,187.33h11.79c9,0,14.77,3.55,14.77,13.22,0,3.48-1.42,7.48-4.45,9.41,5.74,1,8.32,6.84,8.32,12.19,0,9.54-6.71,13.79-15.54,13.79h-14.89Zm9.47,20.25h1.16c4.39,0,6.9-1.36,6.9-6.39,0-4.7-2.84-6.25-6.83-6.25H1022Zm0,20.76h2c5.09,0,9.48-.65,9.48-7s-5.16-6.57-9.93-6.57H1022Z"/><path class="cls-1" d="M1050.26,211.57c0-13.6,9.86-25.53,24-25.53s24,11.93,24,25.53c0,13.93-9.86,25.66-24,25.66S1050.26,225.5,1050.26,211.57Zm9.8-.38c0,7.35,6.19,16.69,14.24,16.69s14.25-9.34,14.25-16.69c0-7.87-5.93-15.8-14.25-15.8S1060.06,203.32,1060.06,211.19Z"/></g></g></svg>