<?xml version="1.0" encoding="utf-8"?>
<!-- Generator: Adobe Illustrator 24.0.3, SVG Export Plug-In . SVG Version: 6.00 Build 0)  -->
<svg version="1.1" id="Capa_1" xmlns="http://www.w3.org/2000/svg" xmlns:xlink="http://www.w3.org/1999/xlink" x="0px" y="0px"
	 viewBox="0 0 512 512" style="enable-background:new 0 0 512 512;" xml:space="preserve">
<style type="text/css">
	.st0{fill:#6077B5;}
</style>
<g>
	<g>
		<path class="st0" d="M257,210c-24.8,0-45,20.2-45,45s20.2,45,45,45s45-20.2,45-45S281.8,210,257,210z"/>
	</g>
</g>
<g>
	<g>
		<path class="st0" d="M255,0C114.4,0,0,114.4,0,255s114.4,257,255,257s257-116.4,257-257S395.6,0,255,0z M362,330
			c-20.3,0-38.2-10.2-49-25.6C299.2,320,279.4,330,257,330c-41.4,0-75-33.6-75-75s33.6-75,75-75c16.9,0,32.4,5.9,45,15.4V195
			c0-8.3,6.7-15,15-15s15,6.7,15,15c0,33.4,0,41.6,0,75c0,16.5,13.5,30,30,30s30-13.5,30-30c0-100.4-66.4-150-135-150
			c-74.4,0-135,60.6-135,135s60.6,135,135,135c30,0,58.4-9.6,82.1-27.8c15.8-12.1,33.9,11.8,18.3,23.8c-29,22.3-63.7,34-100.3,34
			c-91,0-165-74-165-165S166,90,257,90c82.9,0,165,61.1,165,180C422,303.1,395.1,330,362,330z"/>
	</g>
</g>
</svg>
